<?xml version="1.0" standalone="no"?><!DOCTYPE svg PUBLIC "-//W3C//DTD SVG 1.1//EN" "http://www.w3.org/Graphics/SVG/1.1/DTD/svg11.dtd"><svg t="1585707307639" class="icon" viewBox="0 0 1025 1024" version="1.1" xmlns="http://www.w3.org/2000/svg" p-id="1389" xmlns:xlink="http://www.w3.org/1999/xlink" width="100.09765625" height="100"><defs><style type="text/css"></style></defs><path d="M990.328962 377.32389a96.451591 96.451591 0 0 0-14.186209-9.944971h0.365624a226.394334 226.394334 0 0 1-97.182839-170.380749 94.184723 94.184723 0 0 0-111.369047-94.696596A221.933722 221.933722 0 0 1 585.437028 35.246146a93.38035 93.38035 0 0 0-145.664572 0 221.714348 221.714348 0 0 1-182.519463 67.274802 94.330972 94.330972 0 0 0-111.588422 94.477222 226.17496 226.17496 0 0 1-97.036589 170.380749A95.939718 95.939718 0 0 0 23.399931 512.458492c39.853008 56.159835 52.211096 127.237126 33.710526 193.561306a95.06222 95.06222 0 0 0 72.759161 127.968373 224.273715 224.273715 0 0 1 148.808937 126.286504 93.5266 93.5266 0 0 0 136.743348 50.456102 220.909975 220.909975 0 0 1 194.219428 0 93.599725 93.599725 0 0 0 136.743348-50.456102 223.908091 223.908091 0 0 1 148.808937-126.286504 95.20847 95.20847 0 0 0 72.832286-127.968373 227.929954 227.929954 0 0 1 33.637401-193.561306 95.866593 95.866593 0 0 0-11.334341-135.134602zM475.311102 783.093321l-226.248085-225.955585 90.674734-90.455359 135.573351 135.719601 226.394334-226.321209 90.455359 90.455358-316.849693 316.557194z" fill="#3F91F0" p-id="1390"></path></svg>