<?xml version="1.0" encoding="utf-8"?>
<!-- Generator: Adobe Illustrator 24.0.2, SVG Export Plug-In . SVG Version: 6.00 Build 0)  -->
<svg version="1.1" id="图层_1" xmlns="http://www.w3.org/2000/svg" xmlns:xlink="http://www.w3.org/1999/xlink" x="0px" y="0px"
	 viewBox="0 0 100 100" style="enable-background:new 0 0 100 100;" xml:space="preserve">
<style type="text/css">
	.st0{fill:#00B762;}
</style>
<path class="st0" d="M96.8,37.2L82.7,15.3c-1.9-3-6.3-5.3-9.8-5.3H27.8c-3.5,0-7.9,2.4-9.8,5.3L3.7,37.2c-1.9,3-1.5,7.5,0.9,10.1
	l41.3,43.9l0.4,0.4c2.4,2.2,6.2,2,8.4-0.4l41.2-43.9C98.3,44.7,98.7,40.2,96.8,37.2z M67.3,36.2L55.5,63.1c-1.3,3-3.7,5.5-5.2,5.5
	s-3.9-2.5-5.2-5.5L33.2,36.2c-1.3-3-0.4-5.5,2.1-5.5s5.6,2.5,6.9,5.5L48,49.7c1.3,3,3.4,3,4.7,0l5.6-13.4c1.3-3,4.4-5.5,6.8-5.5
	C67.7,30.7,68.6,33.2,67.3,36.2z"/>
</svg>
